# xmcd
#
# Track frame offsets: 
#        150
#        11087
#        18025
#        23537
#        30750
#        41342
#        59347
#        61357
#        69440
#        73437
#        76985
#        85722
#        110032
#        123002
#        142715
#        153195
#        156237
#        172185
#        182422
#
# Disc length: 2578 seconds
#
# Revision: 2
# Processed by: cddbd v1.5.2PL0 Copyright (c) Steve Scherf et al.
# Submitted via: ExactAudioCopyFreeDBPlugin 1.0
#
DISCID=e20a1013
DTITLE=Willie Nelson - Red Headed Stranger
DYEAR=1975
DGENRE=Country
TTITLE0=Time of the preacher
TTITLE1=I couldn't believe it was true
TTITLE2=Time of the preacher theme
TTITLE3=Blue Rock Montana - Red headed stranger
TTITLE4=Blue eyes crying in the rain
TTITLE5=Red headed stranger
TTITLE6=Time of the Preacher theme
TTITLE7=Just as I am
TTITLE8=Denver
TTITLE9=O'er the waves
TTITLE10=Down yonder
TTITLE11=Can I sleep in your arms
TTITLE12=Remember me
TTITLE13=Hands on the wheel
TTITLE14=Bandera
TTITLE15=Bach minuet in G
TTITLE16=Can't help it (If I'm still in love with you)
TTITLE17=A maiden's prayer
TTITLE18=Bonaparte's retreat
EXTD=
EXTT0=
EXTT1=
EXTT2=
EXTT3=
EXTT4=
EXTT5=
EXTT6=
EXTT7=
EXTT8=
EXTT9=
EXTT10=
EXTT11=
EXTT12=
EXTT13=
EXTT14=
EXTT15=
EXTT16=
EXTT17=
EXTT18=
PLAYORDER=
